<svg width="97" height="96" viewBox="0 0 62 69" fill="none" xmlns="http://www.w3.org/2000/svg">
<path d="M55.1111 62.1H6.88889V24.15H55.1111M44.7778 0V6.9H17.2222V0H10.3333V6.9H6.88889C3.06556 6.9 0 9.9705 0 13.8V62.1C0 63.93 0.725791 65.685 2.01771 66.979C3.30963 68.273 5.06184 69 6.88889 69H55.1111C56.9382 69 58.6904 68.273 59.9823 66.979C61.2742 65.685 62 63.93 62 62.1V13.8C62 11.97 61.2742 10.215 59.9823 8.92096C58.6904 7.62696 56.9382 6.9 55.1111 6.9H51.6667V0M48.2222 37.95H31V55.2H48.2222V37.95Z" fill="#F5F5F5"/>
</svg>
