<svg width="97" height="97" viewBox="0 0 124 124" fill="none" xmlns="http://www.w3.org/2000/svg">
<path d="M69.2075 51.057L51.46 53.2812L50.8245 56.2263L54.312 56.8695C56.5905 57.412 57.04 58.2335 56.544 60.5042L50.8245 87.3812C49.321 94.333 51.6382 97.6035 57.0865 97.6035C61.3102 97.6035 66.216 95.6505 68.4402 92.969L69.1222 89.745C67.5722 91.109 65.3092 91.6515 63.8057 91.6515C61.6745 91.6515 60.8995 90.1558 61.4497 87.5208L69.2075 51.057ZM69.75 34.875C69.75 36.9304 68.9335 38.9017 67.4801 40.3551C66.0267 41.8085 64.0554 42.625 62 42.625C59.9446 42.625 57.9733 41.8085 56.5199 40.3551C55.0665 38.9017 54.25 36.9304 54.25 34.875C54.25 32.8196 55.0665 30.8483 56.5199 29.3949C57.9733 27.9415 59.9446 27.125 62 27.125C64.0554 27.125 66.0267 27.9415 67.4801 29.3949C68.9335 30.8483 69.75 32.8196 69.75 34.875Z" fill="#F8F8F8"/>
</svg>
