<svg width="41" height="41" viewBox="0 0 41 41" fill="none" xmlns="http://www.w3.org/2000/svg">
<rect width="41" height="41" rx="20.5" fill="#EE6353"/>
<path d="M25.8525 10.9382C25.2132 10.14 24.3461 9.69092 23.442 9.69092H17.3995C16.4954 9.69092 15.6283 10.14 14.9881 10.9382L12.9188 13.5216H12.5784C12.202 13.5216 11.8969 13.9026 11.8969 14.3725V24.3693C11.8969 25.498 12.2566 26.5806 12.8959 27.3799L14.9889 29.993C15.6283 30.7912 16.4954 31.2402 17.3995 31.2402H23.442C24.3461 31.2402 25.2132 30.7912 25.8534 29.993L27.9227 27.4084H28.2639C28.6403 27.4084 28.9455 27.0274 28.9455 26.5575V16.5607C28.9455 15.4321 28.5858 14.3495 27.9464 13.5502L25.8525 10.9371V10.9382ZM14.9652 27.4084V13.5216H25.8763V27.4084H14.9652Z" fill="#44110B"/>
</svg>
