
            <svg  viewBox="0 0 725 133" fill="none" xmlns="http://www.w3.org/2000/svg">
                <path
                    d="M110.859 7.69796C105.78 2.77154 98.8919 0 91.7104 0H43.7106C36.5291 0 29.641 2.77154 24.5553 7.69796L8.11758 23.6428H5.41405C2.4241 23.6428 0 25.9942 0 28.8945V90.5934C0 97.5595 2.85722 104.241 7.93594 109.174L24.5623 125.302C29.641 130.228 36.5291 133 43.7106 133H91.7104C98.8919 133 105.78 130.228 110.866 125.302L127.303 109.35H130.014C133.004 109.35 135.428 106.999 135.428 104.099V42.3998C135.428 35.4337 132.571 28.7522 127.492 23.819L110.859 7.69119V7.69796ZM24.3737 109.35V23.6428H111.047V109.35H24.3737Z"
                    fill="#F5F5F5" />
                <path
                    d="M270.66 78.3756H268.781L252.357 62.4443C247.279 57.5179 240.39 54.7463 233.209 54.7463H165.034V23.6428H266.084C267.579 23.6428 268.795 22.4637 268.795 21.0135V2.62923C268.795 1.17909 267.579 0 266.084 0H184.364C177.182 0 170.294 2.77154 165.209 7.69796L148.771 23.6428H146.067C143.077 23.6428 140.653 25.9942 140.653 28.8945V36.816C140.653 43.4908 143.294 49.8877 147.981 54.7463H147.912L164.356 70.6979C164.356 70.6979 164.391 70.725 164.405 70.7454L165.027 71.3485V71.2942C170.036 75.8344 176.623 78.3959 183.505 78.3959H251.701V109.357H157.398C154.408 109.357 151.984 111.709 151.984 114.609V127.748C151.984 130.649 154.408 133 157.398 133H232.364C239.545 133 246.433 130.228 251.519 125.302L251.708 125.119L268.152 109.167C273.231 104.241 276.088 97.5595 276.088 90.5934V83.634C276.088 80.7337 273.664 78.3823 270.674 78.3823L270.66 78.3756Z"
                    fill="#F5F5F5" />
                <path
                    d="M437.063 23.6495H426.2C421.757 23.6495 418.153 20.18 418.104 15.8838V5.26524C418.104 2.35818 415.673 0 412.676 0H380.233C377.243 0 374.819 2.3514 374.819 5.25169V23.6428H410.028C414.464 23.6495 418.062 27.119 418.111 31.4153V127.728C418.111 130.628 420.535 132.98 423.525 132.98H437.07C440.06 132.98 442.484 130.628 442.484 127.728V28.9012C442.484 26.0009 440.06 23.6495 437.07 23.6495H437.063Z"
                    fill="#F5F5F5" />
                <path
                    d="M369.287 23.6495H358.424C353.981 23.6495 350.376 20.18 350.327 15.8838V5.26524C350.327 2.35818 347.896 0 344.899 0L311.239 0C308.249 0 305.825 2.3514 305.825 5.25169V23.6428H342.252C346.688 23.6495 350.285 27.119 350.334 31.4153V127.728C350.334 130.628 352.758 132.98 355.748 132.98H369.294C372.284 132.98 374.708 130.628 374.708 127.728V28.9012C374.708 26.0009 372.284 23.6495 369.294 23.6495H369.287Z"
                    fill="#F5F5F5" />
                <path
                    d="M281.313 28.9012V127.735C281.313 130.635 283.738 132.986 286.728 132.986H300.273C303.263 132.986 305.687 130.635 305.687 127.735V23.6495H286.728C283.738 23.6495 281.313 26.0009 281.313 28.9012Z"
                    fill="#F5F5F5" />
                <path
                    d="M558.568 7.69796C553.489 2.77154 546.601 0 539.42 0H491.42C484.238 0 477.35 2.77154 472.265 7.69796L455.827 23.6428H453.123C450.133 23.6428 447.709 25.9942 447.709 28.8945V90.5934C447.709 97.5595 450.567 104.241 455.645 109.174L472.272 125.302C477.35 130.228 484.238 133 491.42 133H539.42C546.601 133 553.489 130.228 558.575 125.302L575.013 109.35H577.723C580.713 109.35 583.137 106.999 583.137 104.099V42.3998C583.137 35.4337 580.28 28.7522 575.201 23.819L558.568 7.69119V7.69796ZM472.083 109.357V23.6428H558.757V109.35H472.083V109.357Z"
                    fill="#F5F5F5" />
                <path
                    d="M723.784 28.8945C723.784 25.9942 721.359 23.6428 718.37 23.6428H715.666L699.228 7.69796C694.15 2.77154 687.261 0 680.073 0H598.352C596.857 0 595.642 1.17909 595.642 2.62923V21.0203C595.642 22.4705 596.857 23.6495 598.352 23.6495H699.403V54.7531H631.228C624.046 54.7531 617.158 57.5179 612.08 62.4511L595.656 78.3823H593.777C590.787 78.3823 588.363 80.7337 588.363 83.634V90.5934C588.363 97.5595 591.213 104.241 596.299 109.167L612.743 125.119L612.932 125.302C618.011 130.228 624.899 133 632.087 133H707.052C710.042 133 712.466 130.649 712.466 127.748V114.609C712.466 111.709 710.042 109.357 707.052 109.357H612.75V78.3959H680.946C687.827 78.3959 694.415 75.8344 699.424 71.2942V71.3485L700.046 70.7454C700.046 70.7454 700.08 70.7183 700.094 70.6979L716.539 54.7463H716.469C721.157 49.8877 723.798 43.4908 723.798 36.816V28.8945H723.784Z"
                    fill="#F5F5F5" />
            </svg>