<svg width="97" height="97" viewBox="0 0 93 93" fill="none" xmlns="http://www.w3.org/2000/svg">
<path d="M38.75 85.25V58.125H31V34.875C31 32.7438 31.7595 30.9199 33.2785 29.4035C34.7975 27.8871 36.6213 27.1276 38.75 27.125H54.25C56.3813 27.125 58.2064 27.8845 59.7254 29.4035C61.2444 30.9225 62.0026 32.7464 62 34.875V58.125H54.25V85.25H38.75ZM46.5 23.25C44.3687 23.25 42.5449 22.4918 41.0285 20.9754C39.5121 19.459 38.7526 17.6339 38.75 15.5C38.7474 13.3662 39.5069 11.5424 41.0285 10.0285C42.5501 8.51469 44.3739 7.75519 46.5 7.75003C48.6261 7.74486 50.4512 8.50436 51.9754 10.0285C53.4995 11.5527 54.2577 13.3765 54.25 15.5C54.2423 17.6235 53.484 19.4487 51.9754 20.9754C50.4667 22.5022 48.6416 23.2604 46.5 23.25Z" fill="#F8F8F8"/>
</svg>
